<?xml version="1.0" standalone="no"?>
<!DOCTYPE svg PUBLIC "-//W3C//DTD SVG 20010904//EN"
 "http://www.w3.org/TR/2001/REC-SVG-20010904/DTD/svg10.dtd">
<svg version="1.0" xmlns="http://www.w3.org/2000/svg"
 width="360.000000pt" height="360.000000pt" viewBox="0 0 360.000000 360.000000"
 preserveAspectRatio="xMidYMid meet">

<g transform="translate(0.000000,360.000000) scale(0.100000,-0.100000)"
fill="#000000" stroke="none">
<path d="M1951 2654 c-82 -126 -219 -334 -303 -463 -85 -129 -158 -236 -164
-237 -5 -2 -74 78 -154 177 -80 98 -147 179 -150 179 -3 0 -238 -326 -522
-723 -284 -397 -531 -741 -548 -764 l-32 -43 1741 0 c1235 0 1741 3 1741 11 0
9 -1426 2057 -1450 2083 -5 5 -76 -94 -159 -220z m778 -879 l601 -860 -750 -3
c-412 -1 -1088 -1 -1501 0 l-751 3 426 594 c235 327 428 596 430 598 2 2 72
-80 156 -182 124 -151 155 -184 165 -173 7 7 144 215 305 461 236 359 296 445
306 435 7 -7 283 -400 613 -873z"/>
<path d="M1940 2183 c-90 -148 -170 -278 -178 -290 -13 -21 -11 -24 34 -53 26
-16 51 -30 54 -30 3 0 62 92 130 204 95 155 128 202 136 193 7 -7 78 -113 159
-237 81 -124 152 -224 158 -222 17 5 87 56 87 65 0 7 -393 612 -409 630 -4 4
-81 -113 -171 -260z"/>
<path d="M916 1507 c-143 -200 -261 -368 -263 -374 -4 -11 71 -73 88 -73 4 0
105 137 225 305 119 168 220 305 223 304 3 0 57 -62 120 -139 l115 -138 43 36
c24 20 43 40 43 45 0 10 -317 391 -328 394 -4 1 -124 -161 -266 -360z"/>
</g>
</svg>
